<mxfile host="Electron" modified="2024-03-20T17:57:11.915Z" agent="Mozilla/5.0 (Windows NT 10.0; Win64; x64) AppleWebKit/537.36 (KHTML, like Gecko) draw.io/24.0.4 Chrome/120.0.6099.109 Electron/28.1.0 Safari/537.36" etag="khHsl5aXiVwTxUvCM8ri" version="24.0.4" type="device" pages="2">
  <diagram name="components_diag" id="dMLuNoqxdP45V23hmprU">
    <mxGraphModel dx="1036" dy="614" grid="1" gridSize="10" guides="1" tooltips="1" connect="1" arrows="1" fold="1" page="1" pageScale="1" pageWidth="827" pageHeight="1169" math="0" shadow="0">
      <root>
        <mxCell id="0" />
        <mxCell id="1" parent="0" />
        <mxCell id="bRZ0yPLQnzEYm_PBIU9V-1" value="UI" style="shape=module;align=left;spacingLeft=20;align=center;verticalAlign=top;whiteSpace=wrap;html=1;" parent="1" vertex="1">
          <mxGeometry x="250" y="200" width="100" height="50" as="geometry" />
        </mxCell>
        <mxCell id="bRZ0yPLQnzEYm_PBIU9V-4" value="" style="edgeStyle=orthogonalEdgeStyle;rounded=0;orthogonalLoop=1;jettySize=auto;html=1;" parent="1" source="bRZ0yPLQnzEYm_PBIU9V-2" target="bRZ0yPLQnzEYm_PBIU9V-1" edge="1">
          <mxGeometry relative="1" as="geometry" />
        </mxCell>
        <mxCell id="bRZ0yPLQnzEYm_PBIU9V-5" value="" style="edgeStyle=orthogonalEdgeStyle;rounded=0;orthogonalLoop=1;jettySize=auto;html=1;" parent="1" source="bRZ0yPLQnzEYm_PBIU9V-2" target="bRZ0yPLQnzEYm_PBIU9V-3" edge="1">
          <mxGeometry relative="1" as="geometry" />
        </mxCell>
        <mxCell id="bRZ0yPLQnzEYm_PBIU9V-2" value="Business Logic" style="shape=module;align=left;spacingLeft=20;align=center;verticalAlign=top;whiteSpace=wrap;html=1;" parent="1" vertex="1">
          <mxGeometry x="250" y="300" width="100" height="50" as="geometry" />
        </mxCell>
        <mxCell id="bRZ0yPLQnzEYm_PBIU9V-3" value="Data Acess" style="shape=module;align=left;spacingLeft=20;align=center;verticalAlign=top;whiteSpace=wrap;html=1;" parent="1" vertex="1">
          <mxGeometry x="250" y="390" width="100" height="50" as="geometry" />
        </mxCell>
        <mxCell id="bRZ0yPLQnzEYm_PBIU9V-7" value="" style="shape=datastore;whiteSpace=wrap;html=1;" parent="1" vertex="1">
          <mxGeometry x="270" y="480" width="60" height="60" as="geometry" />
        </mxCell>
        <mxCell id="bRZ0yPLQnzEYm_PBIU9V-8" value="" style="edgeStyle=orthogonalEdgeStyle;rounded=0;orthogonalLoop=1;jettySize=auto;html=1;entryX=0.5;entryY=1;entryDx=0;entryDy=0;exitX=0.5;exitY=0;exitDx=0;exitDy=0;" parent="1" source="bRZ0yPLQnzEYm_PBIU9V-7" target="bRZ0yPLQnzEYm_PBIU9V-3" edge="1">
          <mxGeometry relative="1" as="geometry">
            <mxPoint x="370" y="470" as="sourcePoint" />
            <mxPoint x="370" y="510" as="targetPoint" />
          </mxGeometry>
        </mxCell>
        <mxCell id="bRZ0yPLQnzEYm_PBIU9V-9" value="Neural Network" style="shape=module;align=left;spacingLeft=20;align=center;verticalAlign=top;whiteSpace=wrap;html=1;" parent="1" vertex="1">
          <mxGeometry x="413" y="300" width="100" height="50" as="geometry" />
        </mxCell>
        <mxCell id="28zu1Jy5hAs8bJ-2aw44-4" value="" style="endArrow=classic;html=1;rounded=0;" parent="1" source="bRZ0yPLQnzEYm_PBIU9V-2" target="bRZ0yPLQnzEYm_PBIU9V-9" edge="1">
          <mxGeometry width="50" height="50" relative="1" as="geometry">
            <mxPoint x="400.00428571428563" y="345" as="sourcePoint" />
            <mxPoint x="405.8970329670329" y="305" as="targetPoint" />
          </mxGeometry>
        </mxCell>
      </root>
    </mxGraphModel>
  </diagram>
  <diagram id="0g7owi2xsecF9RQJJWsS" name="class_diag">
    <mxGraphModel dx="1918" dy="646" grid="1" gridSize="10" guides="1" tooltips="1" connect="1" arrows="1" fold="1" page="1" pageScale="1" pageWidth="827" pageHeight="1169" math="0" shadow="0">
      <root>
        <mxCell id="0" />
        <mxCell id="1" parent="0" />
        <mxCell id="thwX0Xzvlj1knC21GbBp-1" value="IOAuthService" style="swimlane;fontStyle=0;childLayout=stackLayout;horizontal=1;startSize=26;fillColor=none;horizontalStack=0;resizeParent=1;resizeParentMax=0;resizeLast=0;collapsible=1;marginBottom=0;whiteSpace=wrap;html=1;" parent="1" vertex="1">
          <mxGeometry x="130" y="90" width="140" height="104" as="geometry" />
        </mxCell>
        <mxCell id="thwX0Xzvlj1knC21GbBp-2" value="+ Login()" style="text;strokeColor=none;fillColor=none;align=left;verticalAlign=top;spacingLeft=4;spacingRight=4;overflow=hidden;rotatable=0;points=[[0,0.5],[1,0.5]];portConstraint=eastwest;whiteSpace=wrap;html=1;" parent="thwX0Xzvlj1knC21GbBp-1" vertex="1">
          <mxGeometry y="26" width="140" height="26" as="geometry" />
        </mxCell>
        <mxCell id="thwX0Xzvlj1knC21GbBp-3" value="+ Register()" style="text;strokeColor=none;fillColor=none;align=left;verticalAlign=top;spacingLeft=4;spacingRight=4;overflow=hidden;rotatable=0;points=[[0,0.5],[1,0.5]];portConstraint=eastwest;whiteSpace=wrap;html=1;" parent="thwX0Xzvlj1knC21GbBp-1" vertex="1">
          <mxGeometry y="52" width="140" height="26" as="geometry" />
        </mxCell>
        <mxCell id="thwX0Xzvlj1knC21GbBp-4" value="&lt;div&gt;&lt;br&gt;&lt;/div&gt;" style="text;strokeColor=none;fillColor=none;align=left;verticalAlign=top;spacingLeft=4;spacingRight=4;overflow=hidden;rotatable=0;points=[[0,0.5],[1,0.5]];portConstraint=eastwest;whiteSpace=wrap;html=1;" parent="thwX0Xzvlj1knC21GbBp-1" vertex="1">
          <mxGeometry y="78" width="140" height="26" as="geometry" />
        </mxCell>
        <mxCell id="thwX0Xzvlj1knC21GbBp-5" value="IAnottationService" style="swimlane;fontStyle=0;childLayout=stackLayout;horizontal=1;startSize=26;fillColor=none;horizontalStack=0;resizeParent=1;resizeParentMax=0;resizeLast=0;collapsible=1;marginBottom=0;whiteSpace=wrap;html=1;" parent="1" vertex="1">
          <mxGeometry x="280" y="90" width="180" height="104" as="geometry" />
        </mxCell>
        <mxCell id="thwX0Xzvlj1knC21GbBp-6" value="+ AddAnnotattion()" style="text;strokeColor=none;fillColor=none;align=left;verticalAlign=top;spacingLeft=4;spacingRight=4;overflow=hidden;rotatable=0;points=[[0,0.5],[1,0.5]];portConstraint=eastwest;whiteSpace=wrap;html=1;" parent="thwX0Xzvlj1knC21GbBp-5" vertex="1">
          <mxGeometry y="26" width="180" height="26" as="geometry" />
        </mxCell>
        <mxCell id="thwX0Xzvlj1knC21GbBp-7" value="+ DeleteAnotattion()" style="text;strokeColor=none;fillColor=none;align=left;verticalAlign=top;spacingLeft=4;spacingRight=4;overflow=hidden;rotatable=0;points=[[0,0.5],[1,0.5]];portConstraint=eastwest;whiteSpace=wrap;html=1;" parent="thwX0Xzvlj1knC21GbBp-5" vertex="1">
          <mxGeometry y="52" width="180" height="26" as="geometry" />
        </mxCell>
        <mxCell id="thwX0Xzvlj1knC21GbBp-8" value="+ GetAnotattionByID()&lt;div&gt;&lt;br&gt;&lt;/div&gt;" style="text;strokeColor=none;fillColor=none;align=left;verticalAlign=top;spacingLeft=4;spacingRight=4;overflow=hidden;rotatable=0;points=[[0,0.5],[1,0.5]];portConstraint=eastwest;whiteSpace=wrap;html=1;" parent="thwX0Xzvlj1knC21GbBp-5" vertex="1">
          <mxGeometry y="78" width="180" height="26" as="geometry" />
        </mxCell>
        <mxCell id="thwX0Xzvlj1knC21GbBp-9" value="IAnnotattionTypeService" style="swimlane;fontStyle=0;childLayout=stackLayout;horizontal=1;startSize=26;fillColor=none;horizontalStack=0;resizeParent=1;resizeParentMax=0;resizeLast=0;collapsible=1;marginBottom=0;whiteSpace=wrap;html=1;" parent="1" vertex="1">
          <mxGeometry x="504" y="90" width="166" height="104" as="geometry" />
        </mxCell>
        <mxCell id="thwX0Xzvlj1knC21GbBp-10" value="+ AddAnotattionType()" style="text;strokeColor=none;fillColor=none;align=left;verticalAlign=top;spacingLeft=4;spacingRight=4;overflow=hidden;rotatable=0;points=[[0,0.5],[1,0.5]];portConstraint=eastwest;whiteSpace=wrap;html=1;" parent="thwX0Xzvlj1knC21GbBp-9" vertex="1">
          <mxGeometry y="26" width="166" height="26" as="geometry" />
        </mxCell>
        <mxCell id="thwX0Xzvlj1knC21GbBp-11" value="+ DeleteAnotattionType()" style="text;strokeColor=none;fillColor=none;align=left;verticalAlign=top;spacingLeft=4;spacingRight=4;overflow=hidden;rotatable=0;points=[[0,0.5],[1,0.5]];portConstraint=eastwest;whiteSpace=wrap;html=1;" parent="thwX0Xzvlj1knC21GbBp-9" vertex="1">
          <mxGeometry y="52" width="166" height="26" as="geometry" />
        </mxCell>
        <mxCell id="thwX0Xzvlj1knC21GbBp-12" value="+ GetAnotattionTypeByID()&lt;div&gt;&lt;br&gt;&lt;/div&gt;" style="text;strokeColor=none;fillColor=none;align=left;verticalAlign=top;spacingLeft=4;spacingRight=4;overflow=hidden;rotatable=0;points=[[0,0.5],[1,0.5]];portConstraint=eastwest;whiteSpace=wrap;html=1;" parent="thwX0Xzvlj1knC21GbBp-9" vertex="1">
          <mxGeometry y="78" width="166" height="26" as="geometry" />
        </mxCell>
        <mxCell id="thwX0Xzvlj1knC21GbBp-17" value="IDocumentService" style="swimlane;fontStyle=0;childLayout=stackLayout;horizontal=1;startSize=26;fillColor=none;horizontalStack=0;resizeParent=1;resizeParentMax=0;resizeLast=0;collapsible=1;marginBottom=0;whiteSpace=wrap;html=1;" parent="1" vertex="1">
          <mxGeometry x="730" y="90" width="140" height="78" as="geometry" />
        </mxCell>
        <mxCell id="thwX0Xzvlj1knC21GbBp-20" value="&lt;div&gt;+ LoadDocument()&lt;br&gt;&lt;br&gt;&lt;/div&gt;" style="text;strokeColor=none;fillColor=none;align=left;verticalAlign=top;spacingLeft=4;spacingRight=4;overflow=hidden;rotatable=0;points=[[0,0.5],[1,0.5]];portConstraint=eastwest;whiteSpace=wrap;html=1;" parent="thwX0Xzvlj1knC21GbBp-17" vertex="1">
          <mxGeometry y="26" width="140" height="26" as="geometry" />
        </mxCell>
        <mxCell id="thwX0Xzvlj1knC21GbBp-104" value="&lt;div&gt;+ CheckDocument()&lt;br&gt;&lt;br&gt;&lt;/div&gt;" style="text;strokeColor=none;fillColor=none;align=left;verticalAlign=top;spacingLeft=4;spacingRight=4;overflow=hidden;rotatable=0;points=[[0,0.5],[1,0.5]];portConstraint=eastwest;whiteSpace=wrap;html=1;" parent="thwX0Xzvlj1knC21GbBp-17" vertex="1">
          <mxGeometry y="52" width="140" height="26" as="geometry" />
        </mxCell>
        <mxCell id="thwX0Xzvlj1knC21GbBp-21" value="OAuthService" style="swimlane;fontStyle=0;childLayout=stackLayout;horizontal=1;startSize=26;fillColor=none;horizontalStack=0;resizeParent=1;resizeParentMax=0;resizeLast=0;collapsible=1;marginBottom=0;whiteSpace=wrap;html=1;" parent="1" vertex="1">
          <mxGeometry x="130" y="260" width="140" height="104" as="geometry" />
        </mxCell>
        <mxCell id="thwX0Xzvlj1knC21GbBp-22" value="+ Login()" style="text;strokeColor=none;fillColor=none;align=left;verticalAlign=top;spacingLeft=4;spacingRight=4;overflow=hidden;rotatable=0;points=[[0,0.5],[1,0.5]];portConstraint=eastwest;whiteSpace=wrap;html=1;" parent="thwX0Xzvlj1knC21GbBp-21" vertex="1">
          <mxGeometry y="26" width="140" height="26" as="geometry" />
        </mxCell>
        <mxCell id="thwX0Xzvlj1knC21GbBp-23" value="+ Register()" style="text;strokeColor=none;fillColor=none;align=left;verticalAlign=top;spacingLeft=4;spacingRight=4;overflow=hidden;rotatable=0;points=[[0,0.5],[1,0.5]];portConstraint=eastwest;whiteSpace=wrap;html=1;" parent="thwX0Xzvlj1knC21GbBp-21" vertex="1">
          <mxGeometry y="52" width="140" height="26" as="geometry" />
        </mxCell>
        <mxCell id="thwX0Xzvlj1knC21GbBp-24" value="&lt;div&gt;&lt;br&gt;&lt;/div&gt;" style="text;strokeColor=none;fillColor=none;align=left;verticalAlign=top;spacingLeft=4;spacingRight=4;overflow=hidden;rotatable=0;points=[[0,0.5],[1,0.5]];portConstraint=eastwest;whiteSpace=wrap;html=1;" parent="thwX0Xzvlj1knC21GbBp-21" vertex="1">
          <mxGeometry y="78" width="140" height="26" as="geometry" />
        </mxCell>
        <mxCell id="thwX0Xzvlj1knC21GbBp-26" value="" style="endArrow=block;html=1;rounded=0;dashed=1;endFill=0;" parent="1" source="thwX0Xzvlj1knC21GbBp-21" target="thwX0Xzvlj1knC21GbBp-1" edge="1">
          <mxGeometry width="50" height="50" relative="1" as="geometry">
            <mxPoint x="290" y="300" as="sourcePoint" />
            <mxPoint x="340" y="250" as="targetPoint" />
          </mxGeometry>
        </mxCell>
        <mxCell id="thwX0Xzvlj1knC21GbBp-27" value="IUserRepository" style="swimlane;fontStyle=0;childLayout=stackLayout;horizontal=1;startSize=26;fillColor=none;horizontalStack=0;resizeParent=1;resizeParentMax=0;resizeLast=0;collapsible=1;marginBottom=0;whiteSpace=wrap;html=1;" parent="1" vertex="1">
          <mxGeometry x="130" y="460" width="140" height="104" as="geometry" />
        </mxCell>
        <mxCell id="thwX0Xzvlj1knC21GbBp-28" value="+ GetUserByID()" style="text;strokeColor=none;fillColor=none;align=left;verticalAlign=top;spacingLeft=4;spacingRight=4;overflow=hidden;rotatable=0;points=[[0,0.5],[1,0.5]];portConstraint=eastwest;whiteSpace=wrap;html=1;" parent="thwX0Xzvlj1knC21GbBp-27" vertex="1">
          <mxGeometry y="26" width="140" height="26" as="geometry" />
        </mxCell>
        <mxCell id="thwX0Xzvlj1knC21GbBp-32" value="+ UpdateUserByID()&lt;div&gt;&lt;br&gt;&lt;/div&gt;" style="text;strokeColor=none;fillColor=none;align=left;verticalAlign=top;spacingLeft=4;spacingRight=4;overflow=hidden;rotatable=0;points=[[0,0.5],[1,0.5]];portConstraint=eastwest;whiteSpace=wrap;html=1;" parent="thwX0Xzvlj1knC21GbBp-27" vertex="1">
          <mxGeometry y="52" width="140" height="26" as="geometry" />
        </mxCell>
        <mxCell id="thwX0Xzvlj1knC21GbBp-33" value="+ DeleteUserByID()&lt;div&gt;&lt;br&gt;&lt;/div&gt;" style="text;strokeColor=none;fillColor=none;align=left;verticalAlign=top;spacingLeft=4;spacingRight=4;overflow=hidden;rotatable=0;points=[[0,0.5],[1,0.5]];portConstraint=eastwest;whiteSpace=wrap;html=1;" parent="thwX0Xzvlj1knC21GbBp-27" vertex="1">
          <mxGeometry y="78" width="140" height="26" as="geometry" />
        </mxCell>
        <mxCell id="thwX0Xzvlj1knC21GbBp-31" value="" style="endArrow=classic;html=1;rounded=0;dashed=1;" parent="1" source="thwX0Xzvlj1knC21GbBp-21" target="thwX0Xzvlj1knC21GbBp-27" edge="1">
          <mxGeometry width="50" height="50" relative="1" as="geometry">
            <mxPoint x="330" y="496" as="sourcePoint" />
            <mxPoint x="330" y="430" as="targetPoint" />
          </mxGeometry>
        </mxCell>
        <mxCell id="thwX0Xzvlj1knC21GbBp-44" value="AnottationService" style="swimlane;fontStyle=0;childLayout=stackLayout;horizontal=1;startSize=26;fillColor=none;horizontalStack=0;resizeParent=1;resizeParentMax=0;resizeLast=0;collapsible=1;marginBottom=0;whiteSpace=wrap;html=1;" parent="1" vertex="1">
          <mxGeometry x="280" y="260" width="180" height="104" as="geometry" />
        </mxCell>
        <mxCell id="thwX0Xzvlj1knC21GbBp-45" value="+ AddAnnotattion()" style="text;strokeColor=none;fillColor=none;align=left;verticalAlign=top;spacingLeft=4;spacingRight=4;overflow=hidden;rotatable=0;points=[[0,0.5],[1,0.5]];portConstraint=eastwest;whiteSpace=wrap;html=1;" parent="thwX0Xzvlj1knC21GbBp-44" vertex="1">
          <mxGeometry y="26" width="180" height="26" as="geometry" />
        </mxCell>
        <mxCell id="thwX0Xzvlj1knC21GbBp-46" value="+ DeleteAnotattion()" style="text;strokeColor=none;fillColor=none;align=left;verticalAlign=top;spacingLeft=4;spacingRight=4;overflow=hidden;rotatable=0;points=[[0,0.5],[1,0.5]];portConstraint=eastwest;whiteSpace=wrap;html=1;" parent="thwX0Xzvlj1knC21GbBp-44" vertex="1">
          <mxGeometry y="52" width="180" height="26" as="geometry" />
        </mxCell>
        <mxCell id="thwX0Xzvlj1knC21GbBp-47" value="+ GetAnotattionByID()&lt;div&gt;&lt;br&gt;&lt;/div&gt;" style="text;strokeColor=none;fillColor=none;align=left;verticalAlign=top;spacingLeft=4;spacingRight=4;overflow=hidden;rotatable=0;points=[[0,0.5],[1,0.5]];portConstraint=eastwest;whiteSpace=wrap;html=1;" parent="thwX0Xzvlj1knC21GbBp-44" vertex="1">
          <mxGeometry y="78" width="180" height="26" as="geometry" />
        </mxCell>
        <mxCell id="thwX0Xzvlj1knC21GbBp-49" value="" style="endArrow=block;html=1;rounded=0;dashed=1;endFill=0;" parent="1" source="thwX0Xzvlj1knC21GbBp-44" target="thwX0Xzvlj1knC21GbBp-5" edge="1">
          <mxGeometry width="50" height="50" relative="1" as="geometry">
            <mxPoint x="350" y="296" as="sourcePoint" />
            <mxPoint x="350" y="230" as="targetPoint" />
          </mxGeometry>
        </mxCell>
        <mxCell id="thwX0Xzvlj1knC21GbBp-55" value="IAnottationRepository" style="swimlane;fontStyle=0;childLayout=stackLayout;horizontal=1;startSize=26;fillColor=none;horizontalStack=0;resizeParent=1;resizeParentMax=0;resizeLast=0;collapsible=1;marginBottom=0;whiteSpace=wrap;html=1;" parent="1" vertex="1">
          <mxGeometry x="280" y="460" width="180" height="104" as="geometry" />
        </mxCell>
        <mxCell id="thwX0Xzvlj1knC21GbBp-56" value="+ AddAnnotattion()" style="text;strokeColor=none;fillColor=none;align=left;verticalAlign=top;spacingLeft=4;spacingRight=4;overflow=hidden;rotatable=0;points=[[0,0.5],[1,0.5]];portConstraint=eastwest;whiteSpace=wrap;html=1;" parent="thwX0Xzvlj1knC21GbBp-55" vertex="1">
          <mxGeometry y="26" width="180" height="26" as="geometry" />
        </mxCell>
        <mxCell id="thwX0Xzvlj1knC21GbBp-57" value="+ DeleteAnotattion()" style="text;strokeColor=none;fillColor=none;align=left;verticalAlign=top;spacingLeft=4;spacingRight=4;overflow=hidden;rotatable=0;points=[[0,0.5],[1,0.5]];portConstraint=eastwest;whiteSpace=wrap;html=1;" parent="thwX0Xzvlj1knC21GbBp-55" vertex="1">
          <mxGeometry y="52" width="180" height="26" as="geometry" />
        </mxCell>
        <mxCell id="thwX0Xzvlj1knC21GbBp-58" value="+ GetAnotattionByID()&lt;div&gt;&lt;br&gt;&lt;/div&gt;" style="text;strokeColor=none;fillColor=none;align=left;verticalAlign=top;spacingLeft=4;spacingRight=4;overflow=hidden;rotatable=0;points=[[0,0.5],[1,0.5]];portConstraint=eastwest;whiteSpace=wrap;html=1;" parent="thwX0Xzvlj1knC21GbBp-55" vertex="1">
          <mxGeometry y="78" width="180" height="26" as="geometry" />
        </mxCell>
        <mxCell id="thwX0Xzvlj1knC21GbBp-60" value="IAnottationTypeRepository" style="swimlane;fontStyle=0;childLayout=stackLayout;horizontal=1;startSize=26;fillColor=none;horizontalStack=0;resizeParent=1;resizeParentMax=0;resizeLast=0;collapsible=1;marginBottom=0;whiteSpace=wrap;html=1;" parent="1" vertex="1">
          <mxGeometry x="497" y="486" width="180" height="104" as="geometry" />
        </mxCell>
        <mxCell id="thwX0Xzvlj1knC21GbBp-61" value="+ AddAnnotattionType()" style="text;strokeColor=none;fillColor=none;align=left;verticalAlign=top;spacingLeft=4;spacingRight=4;overflow=hidden;rotatable=0;points=[[0,0.5],[1,0.5]];portConstraint=eastwest;whiteSpace=wrap;html=1;" parent="thwX0Xzvlj1knC21GbBp-60" vertex="1">
          <mxGeometry y="26" width="180" height="26" as="geometry" />
        </mxCell>
        <mxCell id="thwX0Xzvlj1knC21GbBp-62" value="+ DeleteAnotattionType()" style="text;strokeColor=none;fillColor=none;align=left;verticalAlign=top;spacingLeft=4;spacingRight=4;overflow=hidden;rotatable=0;points=[[0,0.5],[1,0.5]];portConstraint=eastwest;whiteSpace=wrap;html=1;" parent="thwX0Xzvlj1knC21GbBp-60" vertex="1">
          <mxGeometry y="52" width="180" height="26" as="geometry" />
        </mxCell>
        <mxCell id="thwX0Xzvlj1knC21GbBp-79" value="+ GetAnotattionTypeByID()&lt;div&gt;&lt;br&gt;&lt;/div&gt;" style="text;strokeColor=none;fillColor=none;align=left;verticalAlign=top;spacingLeft=4;spacingRight=4;overflow=hidden;rotatable=0;points=[[0,0.5],[1,0.5]];portConstraint=eastwest;whiteSpace=wrap;html=1;" parent="thwX0Xzvlj1knC21GbBp-60" vertex="1">
          <mxGeometry y="78" width="180" height="26" as="geometry" />
        </mxCell>
        <mxCell id="thwX0Xzvlj1knC21GbBp-66" value="" style="endArrow=classic;html=1;rounded=0;dashed=1;" parent="1" source="thwX0Xzvlj1knC21GbBp-44" target="thwX0Xzvlj1knC21GbBp-55" edge="1">
          <mxGeometry width="50" height="50" relative="1" as="geometry">
            <mxPoint x="380" y="270" as="sourcePoint" />
            <mxPoint x="380" y="230" as="targetPoint" />
          </mxGeometry>
        </mxCell>
        <mxCell id="thwX0Xzvlj1knC21GbBp-67" value="AnottationTypeService" style="swimlane;fontStyle=0;childLayout=stackLayout;horizontal=1;startSize=26;fillColor=none;horizontalStack=0;resizeParent=1;resizeParentMax=0;resizeLast=0;collapsible=1;marginBottom=0;whiteSpace=wrap;html=1;" parent="1" vertex="1">
          <mxGeometry x="497" y="260" width="180" height="104" as="geometry" />
        </mxCell>
        <mxCell id="thwX0Xzvlj1knC21GbBp-68" value="+ AddAnnotattionType()" style="text;strokeColor=none;fillColor=none;align=left;verticalAlign=top;spacingLeft=4;spacingRight=4;overflow=hidden;rotatable=0;points=[[0,0.5],[1,0.5]];portConstraint=eastwest;whiteSpace=wrap;html=1;" parent="thwX0Xzvlj1knC21GbBp-67" vertex="1">
          <mxGeometry y="26" width="180" height="26" as="geometry" />
        </mxCell>
        <mxCell id="thwX0Xzvlj1knC21GbBp-69" value="+ DeleteAnotattionType()" style="text;strokeColor=none;fillColor=none;align=left;verticalAlign=top;spacingLeft=4;spacingRight=4;overflow=hidden;rotatable=0;points=[[0,0.5],[1,0.5]];portConstraint=eastwest;whiteSpace=wrap;html=1;" parent="thwX0Xzvlj1knC21GbBp-67" vertex="1">
          <mxGeometry y="52" width="180" height="26" as="geometry" />
        </mxCell>
        <mxCell id="thwX0Xzvlj1knC21GbBp-70" value="+ GetAnotattionTypeByID()&lt;div&gt;&lt;br&gt;&lt;/div&gt;" style="text;strokeColor=none;fillColor=none;align=left;verticalAlign=top;spacingLeft=4;spacingRight=4;overflow=hidden;rotatable=0;points=[[0,0.5],[1,0.5]];portConstraint=eastwest;whiteSpace=wrap;html=1;" parent="thwX0Xzvlj1knC21GbBp-67" vertex="1">
          <mxGeometry y="78" width="180" height="26" as="geometry" />
        </mxCell>
        <mxCell id="thwX0Xzvlj1knC21GbBp-72" value="" style="endArrow=block;html=1;rounded=0;dashed=1;endFill=0;" parent="1" source="thwX0Xzvlj1knC21GbBp-67" target="thwX0Xzvlj1knC21GbBp-9" edge="1">
          <mxGeometry width="50" height="50" relative="1" as="geometry">
            <mxPoint x="380" y="270" as="sourcePoint" />
            <mxPoint x="380" y="230" as="targetPoint" />
          </mxGeometry>
        </mxCell>
        <mxCell id="thwX0Xzvlj1knC21GbBp-73" value="" style="endArrow=classic;html=1;rounded=0;dashed=1;" parent="1" source="thwX0Xzvlj1knC21GbBp-67" target="thwX0Xzvlj1knC21GbBp-60" edge="1">
          <mxGeometry width="50" height="50" relative="1" as="geometry">
            <mxPoint x="597" y="270" as="sourcePoint" />
            <mxPoint x="597" y="204" as="targetPoint" />
          </mxGeometry>
        </mxCell>
        <mxCell id="thwX0Xzvlj1knC21GbBp-74" value="DocumentService" style="swimlane;fontStyle=0;childLayout=stackLayout;horizontal=1;startSize=26;fillColor=none;horizontalStack=0;resizeParent=1;resizeParentMax=0;resizeLast=0;collapsible=1;marginBottom=0;whiteSpace=wrap;html=1;" parent="1" vertex="1">
          <mxGeometry x="710" y="270" width="180" height="78" as="geometry" />
        </mxCell>
        <mxCell id="thwX0Xzvlj1knC21GbBp-75" value="+ CheckDocument()&lt;div&gt;&lt;br/&gt;&lt;/div&gt;" style="text;strokeColor=none;fillColor=none;align=left;verticalAlign=top;spacingLeft=4;spacingRight=4;overflow=hidden;rotatable=0;points=[[0,0.5],[1,0.5]];portConstraint=eastwest;whiteSpace=wrap;html=1;" parent="thwX0Xzvlj1knC21GbBp-74" vertex="1">
          <mxGeometry y="26" width="180" height="26" as="geometry" />
        </mxCell>
        <mxCell id="thwX0Xzvlj1knC21GbBp-105" value="+ LoadDocument()&lt;div&gt;&lt;br&gt;&lt;/div&gt;" style="text;strokeColor=none;fillColor=none;align=left;verticalAlign=top;spacingLeft=4;spacingRight=4;overflow=hidden;rotatable=0;points=[[0,0.5],[1,0.5]];portConstraint=eastwest;whiteSpace=wrap;html=1;" parent="thwX0Xzvlj1knC21GbBp-74" vertex="1">
          <mxGeometry y="52" width="180" height="26" as="geometry" />
        </mxCell>
        <mxCell id="thwX0Xzvlj1knC21GbBp-78" value="" style="endArrow=block;html=1;rounded=0;dashed=1;endFill=0;" parent="1" source="thwX0Xzvlj1knC21GbBp-74" target="thwX0Xzvlj1knC21GbBp-17" edge="1">
          <mxGeometry width="50" height="50" relative="1" as="geometry">
            <mxPoint x="387" y="290" as="sourcePoint" />
            <mxPoint x="799.5491329479769" y="162" as="targetPoint" />
          </mxGeometry>
        </mxCell>
        <mxCell id="thwX0Xzvlj1knC21GbBp-82" value="INeuralNetwork" style="swimlane;fontStyle=0;childLayout=stackLayout;horizontal=1;startSize=26;fillColor=none;horizontalStack=0;resizeParent=1;resizeParentMax=0;resizeLast=0;collapsible=1;marginBottom=0;whiteSpace=wrap;html=1;" parent="1" vertex="1">
          <mxGeometry x="940" y="486" width="180" height="52" as="geometry" />
        </mxCell>
        <mxCell id="thwX0Xzvlj1knC21GbBp-83" value="+ Predict()" style="text;strokeColor=none;fillColor=none;align=left;verticalAlign=top;spacingLeft=4;spacingRight=4;overflow=hidden;rotatable=0;points=[[0,0.5],[1,0.5]];portConstraint=eastwest;whiteSpace=wrap;html=1;" parent="thwX0Xzvlj1knC21GbBp-82" vertex="1">
          <mxGeometry y="26" width="180" height="26" as="geometry" />
        </mxCell>
        <mxCell id="thwX0Xzvlj1knC21GbBp-87" value="NeuralNetwork" style="swimlane;fontStyle=0;childLayout=stackLayout;horizontal=1;startSize=26;fillColor=none;horizontalStack=0;resizeParent=1;resizeParentMax=0;resizeLast=0;collapsible=1;marginBottom=0;whiteSpace=wrap;html=1;" parent="1" vertex="1">
          <mxGeometry x="1200" y="470" width="180" height="78" as="geometry" />
        </mxCell>
        <mxCell id="thwX0Xzvlj1knC21GbBp-88" value="+ Predict()" style="text;strokeColor=none;fillColor=none;align=left;verticalAlign=top;spacingLeft=4;spacingRight=4;overflow=hidden;rotatable=0;points=[[0,0.5],[1,0.5]];portConstraint=eastwest;whiteSpace=wrap;html=1;" parent="thwX0Xzvlj1knC21GbBp-87" vertex="1">
          <mxGeometry y="26" width="180" height="26" as="geometry" />
        </mxCell>
        <mxCell id="thwX0Xzvlj1knC21GbBp-89" value="+ Train()" style="text;strokeColor=none;fillColor=none;align=left;verticalAlign=top;spacingLeft=4;spacingRight=4;overflow=hidden;rotatable=0;points=[[0,0.5],[1,0.5]];portConstraint=eastwest;whiteSpace=wrap;html=1;" parent="thwX0Xzvlj1knC21GbBp-87" vertex="1">
          <mxGeometry y="52" width="180" height="26" as="geometry" />
        </mxCell>
        <mxCell id="thwX0Xzvlj1knC21GbBp-93" value="IDocumentRepository" style="swimlane;fontStyle=0;childLayout=stackLayout;horizontal=1;startSize=26;fillColor=none;horizontalStack=0;resizeParent=1;resizeParentMax=0;resizeLast=0;collapsible=1;marginBottom=0;whiteSpace=wrap;html=1;" parent="1" vertex="1">
          <mxGeometry x="710" y="519" width="180" height="104" as="geometry" />
        </mxCell>
        <mxCell id="thwX0Xzvlj1knC21GbBp-94" value="+ AddDocument()" style="text;strokeColor=none;fillColor=none;align=left;verticalAlign=top;spacingLeft=4;spacingRight=4;overflow=hidden;rotatable=0;points=[[0,0.5],[1,0.5]];portConstraint=eastwest;whiteSpace=wrap;html=1;" parent="thwX0Xzvlj1knC21GbBp-93" vertex="1">
          <mxGeometry y="26" width="180" height="26" as="geometry" />
        </mxCell>
        <mxCell id="thwX0Xzvlj1knC21GbBp-95" value="+ DeleteDocument()" style="text;strokeColor=none;fillColor=none;align=left;verticalAlign=top;spacingLeft=4;spacingRight=4;overflow=hidden;rotatable=0;points=[[0,0.5],[1,0.5]];portConstraint=eastwest;whiteSpace=wrap;html=1;" parent="thwX0Xzvlj1knC21GbBp-93" vertex="1">
          <mxGeometry y="52" width="180" height="26" as="geometry" />
        </mxCell>
        <mxCell id="thwX0Xzvlj1knC21GbBp-96" value="+ GetDocumentByID()&lt;div&gt;&lt;br&gt;&lt;/div&gt;" style="text;strokeColor=none;fillColor=none;align=left;verticalAlign=top;spacingLeft=4;spacingRight=4;overflow=hidden;rotatable=0;points=[[0,0.5],[1,0.5]];portConstraint=eastwest;whiteSpace=wrap;html=1;" parent="thwX0Xzvlj1knC21GbBp-93" vertex="1">
          <mxGeometry y="78" width="180" height="26" as="geometry" />
        </mxCell>
        <mxCell id="thwX0Xzvlj1knC21GbBp-98" value="" style="endArrow=classic;html=1;rounded=0;dashed=1;edgeStyle=orthogonalEdgeStyle;entryX=0.5;entryY=0;entryDx=0;entryDy=0;" parent="1" source="thwX0Xzvlj1knC21GbBp-74" target="thwX0Xzvlj1knC21GbBp-93" edge="1">
          <mxGeometry width="50" height="50" relative="1" as="geometry">
            <mxPoint x="1022.5" y="332" as="sourcePoint" />
            <mxPoint x="600" y="506" as="targetPoint" />
            <Array as="points" />
          </mxGeometry>
        </mxCell>
        <mxCell id="thwX0Xzvlj1knC21GbBp-121" value="" style="endArrow=classic;html=1;rounded=0;dashed=1;endFill=1;startArrow=none;startFill=0;edgeStyle=elbowEdgeStyle;" parent="1" source="thwX0Xzvlj1knC21GbBp-82" target="thwX0Xzvlj1knC21GbBp-74" edge="1">
          <mxGeometry width="50" height="50" relative="1" as="geometry">
            <mxPoint x="1030.0000000000005" y="372" as="sourcePoint" />
            <mxPoint x="1005" y="178" as="targetPoint" />
          </mxGeometry>
        </mxCell>
        <mxCell id="thwX0Xzvlj1knC21GbBp-124" value="NN&lt;br&gt;Logic" style="shape=umlFrame;whiteSpace=wrap;html=1;pointerEvents=0;" parent="1" vertex="1">
          <mxGeometry x="1160" y="64" width="240" height="590" as="geometry" />
        </mxCell>
        <mxCell id="thwX0Xzvlj1knC21GbBp-125" value="Business&lt;br&gt;Logic" style="shape=umlFrame;whiteSpace=wrap;html=1;pointerEvents=0;" parent="1" vertex="1">
          <mxGeometry x="-560" y="60" width="1710" height="590" as="geometry" />
        </mxCell>
        <mxCell id="thwX0Xzvlj1knC21GbBp-126" value="UserRepository" style="swimlane;fontStyle=0;childLayout=stackLayout;horizontal=1;startSize=26;fillColor=none;horizontalStack=0;resizeParent=1;resizeParentMax=0;resizeLast=0;collapsible=1;marginBottom=0;whiteSpace=wrap;html=1;" parent="1" vertex="1">
          <mxGeometry x="130" y="700" width="140" height="104" as="geometry" />
        </mxCell>
        <mxCell id="thwX0Xzvlj1knC21GbBp-127" value="+ GetUserByID()" style="text;strokeColor=none;fillColor=none;align=left;verticalAlign=top;spacingLeft=4;spacingRight=4;overflow=hidden;rotatable=0;points=[[0,0.5],[1,0.5]];portConstraint=eastwest;whiteSpace=wrap;html=1;" parent="thwX0Xzvlj1knC21GbBp-126" vertex="1">
          <mxGeometry y="26" width="140" height="26" as="geometry" />
        </mxCell>
        <mxCell id="thwX0Xzvlj1knC21GbBp-129" value="+ UpdateUserByID()&lt;div&gt;&lt;br&gt;&lt;/div&gt;" style="text;strokeColor=none;fillColor=none;align=left;verticalAlign=top;spacingLeft=4;spacingRight=4;overflow=hidden;rotatable=0;points=[[0,0.5],[1,0.5]];portConstraint=eastwest;whiteSpace=wrap;html=1;" parent="thwX0Xzvlj1knC21GbBp-126" vertex="1">
          <mxGeometry y="52" width="140" height="26" as="geometry" />
        </mxCell>
        <mxCell id="thwX0Xzvlj1knC21GbBp-130" value="+ DeleteUserByID()&lt;div&gt;&lt;br&gt;&lt;/div&gt;" style="text;strokeColor=none;fillColor=none;align=left;verticalAlign=top;spacingLeft=4;spacingRight=4;overflow=hidden;rotatable=0;points=[[0,0.5],[1,0.5]];portConstraint=eastwest;whiteSpace=wrap;html=1;" parent="thwX0Xzvlj1knC21GbBp-126" vertex="1">
          <mxGeometry y="78" width="140" height="26" as="geometry" />
        </mxCell>
        <mxCell id="thwX0Xzvlj1knC21GbBp-136" value="AnottationRepository" style="swimlane;fontStyle=0;childLayout=stackLayout;horizontal=1;startSize=26;fillColor=none;horizontalStack=0;resizeParent=1;resizeParentMax=0;resizeLast=0;collapsible=1;marginBottom=0;whiteSpace=wrap;html=1;" parent="1" vertex="1">
          <mxGeometry x="280" y="700" width="180" height="104" as="geometry" />
        </mxCell>
        <mxCell id="thwX0Xzvlj1knC21GbBp-137" value="+ AddAnnotattion()" style="text;strokeColor=none;fillColor=none;align=left;verticalAlign=top;spacingLeft=4;spacingRight=4;overflow=hidden;rotatable=0;points=[[0,0.5],[1,0.5]];portConstraint=eastwest;whiteSpace=wrap;html=1;" parent="thwX0Xzvlj1knC21GbBp-136" vertex="1">
          <mxGeometry y="26" width="180" height="26" as="geometry" />
        </mxCell>
        <mxCell id="thwX0Xzvlj1knC21GbBp-138" value="+ DeleteAnotattion()" style="text;strokeColor=none;fillColor=none;align=left;verticalAlign=top;spacingLeft=4;spacingRight=4;overflow=hidden;rotatable=0;points=[[0,0.5],[1,0.5]];portConstraint=eastwest;whiteSpace=wrap;html=1;" parent="thwX0Xzvlj1knC21GbBp-136" vertex="1">
          <mxGeometry y="52" width="180" height="26" as="geometry" />
        </mxCell>
        <mxCell id="thwX0Xzvlj1knC21GbBp-139" value="+ GetAnotattionByID()&lt;div&gt;&lt;br&gt;&lt;/div&gt;" style="text;strokeColor=none;fillColor=none;align=left;verticalAlign=top;spacingLeft=4;spacingRight=4;overflow=hidden;rotatable=0;points=[[0,0.5],[1,0.5]];portConstraint=eastwest;whiteSpace=wrap;html=1;" parent="thwX0Xzvlj1knC21GbBp-136" vertex="1">
          <mxGeometry y="78" width="180" height="26" as="geometry" />
        </mxCell>
        <mxCell id="thwX0Xzvlj1knC21GbBp-141" value="AnottationTypeRepository" style="swimlane;fontStyle=0;childLayout=stackLayout;horizontal=1;startSize=26;fillColor=none;horizontalStack=0;resizeParent=1;resizeParentMax=0;resizeLast=0;collapsible=1;marginBottom=0;whiteSpace=wrap;html=1;" parent="1" vertex="1">
          <mxGeometry x="497" y="690" width="180" height="104" as="geometry" />
        </mxCell>
        <mxCell id="thwX0Xzvlj1knC21GbBp-142" value="+ AddAnnotattionType()" style="text;strokeColor=none;fillColor=none;align=left;verticalAlign=top;spacingLeft=4;spacingRight=4;overflow=hidden;rotatable=0;points=[[0,0.5],[1,0.5]];portConstraint=eastwest;whiteSpace=wrap;html=1;" parent="thwX0Xzvlj1knC21GbBp-141" vertex="1">
          <mxGeometry y="26" width="180" height="26" as="geometry" />
        </mxCell>
        <mxCell id="thwX0Xzvlj1knC21GbBp-143" value="+ DeleteAnotattionType()" style="text;strokeColor=none;fillColor=none;align=left;verticalAlign=top;spacingLeft=4;spacingRight=4;overflow=hidden;rotatable=0;points=[[0,0.5],[1,0.5]];portConstraint=eastwest;whiteSpace=wrap;html=1;" parent="thwX0Xzvlj1knC21GbBp-141" vertex="1">
          <mxGeometry y="52" width="180" height="26" as="geometry" />
        </mxCell>
        <mxCell id="thwX0Xzvlj1knC21GbBp-144" value="+ GetAnotattionTypeByID()&lt;div&gt;&lt;br&gt;&lt;/div&gt;" style="text;strokeColor=none;fillColor=none;align=left;verticalAlign=top;spacingLeft=4;spacingRight=4;overflow=hidden;rotatable=0;points=[[0,0.5],[1,0.5]];portConstraint=eastwest;whiteSpace=wrap;html=1;" parent="thwX0Xzvlj1knC21GbBp-141" vertex="1">
          <mxGeometry y="78" width="180" height="26" as="geometry" />
        </mxCell>
        <mxCell id="thwX0Xzvlj1knC21GbBp-146" value="DocumentRepository" style="swimlane;fontStyle=0;childLayout=stackLayout;horizontal=1;startSize=26;fillColor=none;horizontalStack=0;resizeParent=1;resizeParentMax=0;resizeLast=0;collapsible=1;marginBottom=0;whiteSpace=wrap;html=1;" parent="1" vertex="1">
          <mxGeometry x="710" y="700" width="180" height="104" as="geometry" />
        </mxCell>
        <mxCell id="thwX0Xzvlj1knC21GbBp-147" value="+ AddDocument()" style="text;strokeColor=none;fillColor=none;align=left;verticalAlign=top;spacingLeft=4;spacingRight=4;overflow=hidden;rotatable=0;points=[[0,0.5],[1,0.5]];portConstraint=eastwest;whiteSpace=wrap;html=1;" parent="thwX0Xzvlj1knC21GbBp-146" vertex="1">
          <mxGeometry y="26" width="180" height="26" as="geometry" />
        </mxCell>
        <mxCell id="thwX0Xzvlj1knC21GbBp-148" value="+ DeleteDocument()" style="text;strokeColor=none;fillColor=none;align=left;verticalAlign=top;spacingLeft=4;spacingRight=4;overflow=hidden;rotatable=0;points=[[0,0.5],[1,0.5]];portConstraint=eastwest;whiteSpace=wrap;html=1;" parent="thwX0Xzvlj1knC21GbBp-146" vertex="1">
          <mxGeometry y="52" width="180" height="26" as="geometry" />
        </mxCell>
        <mxCell id="thwX0Xzvlj1knC21GbBp-149" value="+ GetDocumentByID()&lt;div&gt;&lt;br&gt;&lt;/div&gt;" style="text;strokeColor=none;fillColor=none;align=left;verticalAlign=top;spacingLeft=4;spacingRight=4;overflow=hidden;rotatable=0;points=[[0,0.5],[1,0.5]];portConstraint=eastwest;whiteSpace=wrap;html=1;" parent="thwX0Xzvlj1knC21GbBp-146" vertex="1">
          <mxGeometry y="78" width="180" height="26" as="geometry" />
        </mxCell>
        <mxCell id="thwX0Xzvlj1knC21GbBp-150" value="" style="endArrow=none;html=1;rounded=0;dashed=1;edgeStyle=orthogonalEdgeStyle;endFill=0;startArrow=block;startFill=0;" parent="1" source="thwX0Xzvlj1knC21GbBp-27" target="thwX0Xzvlj1knC21GbBp-126" edge="1">
          <mxGeometry width="50" height="50" relative="1" as="geometry">
            <mxPoint x="250" y="613" as="sourcePoint" />
            <mxPoint x="250" y="784" as="targetPoint" />
            <Array as="points" />
          </mxGeometry>
        </mxCell>
        <mxCell id="thwX0Xzvlj1knC21GbBp-151" value="" style="endArrow=none;html=1;rounded=0;dashed=1;edgeStyle=orthogonalEdgeStyle;entryX=0.5;entryY=0;entryDx=0;entryDy=0;endFill=0;startArrow=block;startFill=0;" parent="1" source="thwX0Xzvlj1knC21GbBp-55" target="thwX0Xzvlj1knC21GbBp-136" edge="1">
          <mxGeometry width="50" height="50" relative="1" as="geometry">
            <mxPoint x="200" y="600" as="sourcePoint" />
            <mxPoint x="200" y="690" as="targetPoint" />
            <Array as="points">
              <mxPoint x="370" y="680" />
            </Array>
          </mxGeometry>
        </mxCell>
        <mxCell id="thwX0Xzvlj1knC21GbBp-152" value="" style="endArrow=none;html=1;rounded=0;dashed=1;edgeStyle=orthogonalEdgeStyle;endFill=0;startArrow=block;startFill=0;" parent="1" source="thwX0Xzvlj1knC21GbBp-60" target="thwX0Xzvlj1knC21GbBp-141" edge="1">
          <mxGeometry width="50" height="50" relative="1" as="geometry">
            <mxPoint x="609.47" y="654" as="sourcePoint" />
            <mxPoint x="609.47" y="764" as="targetPoint" />
            <Array as="points" />
          </mxGeometry>
        </mxCell>
        <mxCell id="thwX0Xzvlj1knC21GbBp-153" value="" style="endArrow=none;html=1;rounded=0;dashed=1;edgeStyle=orthogonalEdgeStyle;entryX=0.5;entryY=0;entryDx=0;entryDy=0;endFill=0;startArrow=block;startFill=0;" parent="1" source="thwX0Xzvlj1knC21GbBp-93" target="thwX0Xzvlj1knC21GbBp-146" edge="1">
          <mxGeometry width="50" height="50" relative="1" as="geometry">
            <mxPoint x="597" y="626" as="sourcePoint" />
            <mxPoint x="597" y="700" as="targetPoint" />
            <Array as="points" />
          </mxGeometry>
        </mxCell>
        <mxCell id="thwX0Xzvlj1knC21GbBp-154" value="Data-access" style="shape=umlFrame;whiteSpace=wrap;html=1;pointerEvents=0;" parent="1" vertex="1">
          <mxGeometry x="-560" y="660" width="1710" height="220" as="geometry" />
        </mxCell>
        <mxCell id="thwX0Xzvlj1knC21GbBp-155" value="User" style="swimlane;fontStyle=0;childLayout=stackLayout;horizontal=1;startSize=26;fillColor=none;horizontalStack=0;resizeParent=1;resizeParentMax=0;resizeLast=0;collapsible=1;marginBottom=0;whiteSpace=wrap;html=1;" parent="1" vertex="1">
          <mxGeometry x="-240" y="120" width="140" height="156" as="geometry" />
        </mxCell>
        <mxCell id="thwX0Xzvlj1knC21GbBp-156" value="- login" style="text;strokeColor=none;fillColor=none;align=left;verticalAlign=top;spacingLeft=4;spacingRight=4;overflow=hidden;rotatable=0;points=[[0,0.5],[1,0.5]];portConstraint=eastwest;whiteSpace=wrap;html=1;" parent="thwX0Xzvlj1knC21GbBp-155" vertex="1">
          <mxGeometry y="26" width="140" height="26" as="geometry" />
        </mxCell>
        <mxCell id="thwX0Xzvlj1knC21GbBp-157" value="- password" style="text;strokeColor=none;fillColor=none;align=left;verticalAlign=top;spacingLeft=4;spacingRight=4;overflow=hidden;rotatable=0;points=[[0,0.5],[1,0.5]];portConstraint=eastwest;whiteSpace=wrap;html=1;" parent="thwX0Xzvlj1knC21GbBp-155" vertex="1">
          <mxGeometry y="52" width="140" height="26" as="geometry" />
        </mxCell>
        <mxCell id="thwX0Xzvlj1knC21GbBp-158" value="&lt;div&gt;- registrationDate&lt;/div&gt;" style="text;strokeColor=none;fillColor=none;align=left;verticalAlign=top;spacingLeft=4;spacingRight=4;overflow=hidden;rotatable=0;points=[[0,0.5],[1,0.5]];portConstraint=eastwest;whiteSpace=wrap;html=1;" parent="thwX0Xzvlj1knC21GbBp-155" vertex="1">
          <mxGeometry y="78" width="140" height="26" as="geometry" />
        </mxCell>
        <mxCell id="thwX0Xzvlj1knC21GbBp-159" value="&lt;div&gt;- name&lt;/div&gt;" style="text;strokeColor=none;fillColor=none;align=left;verticalAlign=top;spacingLeft=4;spacingRight=4;overflow=hidden;rotatable=0;points=[[0,0.5],[1,0.5]];portConstraint=eastwest;whiteSpace=wrap;html=1;" parent="thwX0Xzvlj1knC21GbBp-155" vertex="1">
          <mxGeometry y="104" width="140" height="26" as="geometry" />
        </mxCell>
        <mxCell id="thwX0Xzvlj1knC21GbBp-160" value="&lt;div&gt;- surname&lt;/div&gt;" style="text;strokeColor=none;fillColor=none;align=left;verticalAlign=top;spacingLeft=4;spacingRight=4;overflow=hidden;rotatable=0;points=[[0,0.5],[1,0.5]];portConstraint=eastwest;whiteSpace=wrap;html=1;" parent="thwX0Xzvlj1knC21GbBp-155" vertex="1">
          <mxGeometry y="130" width="140" height="26" as="geometry" />
        </mxCell>
        <mxCell id="thwX0Xzvlj1knC21GbBp-161" value="ErrorType" style="swimlane;fontStyle=0;childLayout=stackLayout;horizontal=1;startSize=26;fillColor=none;horizontalStack=0;resizeParent=1;resizeParentMax=0;resizeLast=0;collapsible=1;marginBottom=0;whiteSpace=wrap;html=1;" parent="1" vertex="1">
          <mxGeometry x="-483" y="330" width="140" height="78" as="geometry" />
        </mxCell>
        <mxCell id="thwX0Xzvlj1knC21GbBp-162" value="- description" style="text;strokeColor=none;fillColor=none;align=left;verticalAlign=top;spacingLeft=4;spacingRight=4;overflow=hidden;rotatable=0;points=[[0,0.5],[1,0.5]];portConstraint=eastwest;whiteSpace=wrap;html=1;" parent="thwX0Xzvlj1knC21GbBp-161" vertex="1">
          <mxGeometry y="26" width="140" height="26" as="geometry" />
        </mxCell>
        <mxCell id="thwX0Xzvlj1knC21GbBp-166" value="&lt;div&gt;- creatorID&lt;/div&gt;" style="text;strokeColor=none;fillColor=none;align=left;verticalAlign=top;spacingLeft=4;spacingRight=4;overflow=hidden;rotatable=0;points=[[0,0.5],[1,0.5]];portConstraint=eastwest;whiteSpace=wrap;html=1;" parent="thwX0Xzvlj1knC21GbBp-161" vertex="1">
          <mxGeometry y="52" width="140" height="26" as="geometry" />
        </mxCell>
        <mxCell id="thwX0Xzvlj1knC21GbBp-167" value="Error" style="swimlane;fontStyle=0;childLayout=stackLayout;horizontal=1;startSize=26;fillColor=none;horizontalStack=0;resizeParent=1;resizeParentMax=0;resizeLast=0;collapsible=1;marginBottom=0;whiteSpace=wrap;html=1;" parent="1" vertex="1">
          <mxGeometry x="-240" y="304" width="140" height="156" as="geometry" />
        </mxCell>
        <mxCell id="thwX0Xzvlj1knC21GbBp-168" value="- pageNumber" style="text;strokeColor=none;fillColor=none;align=left;verticalAlign=top;spacingLeft=4;spacingRight=4;overflow=hidden;rotatable=0;points=[[0,0.5],[1,0.5]];portConstraint=eastwest;whiteSpace=wrap;html=1;" parent="thwX0Xzvlj1knC21GbBp-167" vertex="1">
          <mxGeometry y="26" width="140" height="26" as="geometry" />
        </mxCell>
        <mxCell id="thwX0Xzvlj1knC21GbBp-169" value="- errorTypeID" style="text;strokeColor=none;fillColor=none;align=left;verticalAlign=top;spacingLeft=4;spacingRight=4;overflow=hidden;rotatable=0;points=[[0,0.5],[1,0.5]];portConstraint=eastwest;whiteSpace=wrap;html=1;" parent="thwX0Xzvlj1knC21GbBp-167" vertex="1">
          <mxGeometry y="52" width="140" height="26" as="geometry" />
        </mxCell>
        <mxCell id="thwX0Xzvlj1knC21GbBp-170" value="&lt;div&gt;- documentID&lt;/div&gt;" style="text;strokeColor=none;fillColor=none;align=left;verticalAlign=top;spacingLeft=4;spacingRight=4;overflow=hidden;rotatable=0;points=[[0,0.5],[1,0.5]];portConstraint=eastwest;whiteSpace=wrap;html=1;" parent="thwX0Xzvlj1knC21GbBp-167" vertex="1">
          <mxGeometry y="78" width="140" height="26" as="geometry" />
        </mxCell>
        <mxCell id="thwX0Xzvlj1knC21GbBp-171" value="&lt;div&gt;- creatorID&lt;/div&gt;" style="text;strokeColor=none;fillColor=none;align=left;verticalAlign=top;spacingLeft=4;spacingRight=4;overflow=hidden;rotatable=0;points=[[0,0.5],[1,0.5]];portConstraint=eastwest;whiteSpace=wrap;html=1;" parent="thwX0Xzvlj1knC21GbBp-167" vertex="1">
          <mxGeometry y="104" width="140" height="26" as="geometry" />
        </mxCell>
        <mxCell id="thwX0Xzvlj1knC21GbBp-172" value="- errorBB" style="text;strokeColor=none;fillColor=none;align=left;verticalAlign=top;spacingLeft=4;spacingRight=4;overflow=hidden;rotatable=0;points=[[0,0.5],[1,0.5]];portConstraint=eastwest;whiteSpace=wrap;html=1;" parent="thwX0Xzvlj1knC21GbBp-167" vertex="1">
          <mxGeometry y="130" width="140" height="26" as="geometry" />
        </mxCell>
        <mxCell id="thwX0Xzvlj1knC21GbBp-173" value="Document" style="swimlane;fontStyle=0;childLayout=stackLayout;horizontal=1;startSize=26;fillColor=none;horizontalStack=0;resizeParent=1;resizeParentMax=0;resizeLast=0;collapsible=1;marginBottom=0;whiteSpace=wrap;html=1;" parent="1" vertex="1">
          <mxGeometry x="-553" y="120" width="140" height="156" as="geometry" />
        </mxCell>
        <mxCell id="thwX0Xzvlj1knC21GbBp-174" value="- pageCount" style="text;strokeColor=none;fillColor=none;align=left;verticalAlign=top;spacingLeft=4;spacingRight=4;overflow=hidden;rotatable=0;points=[[0,0.5],[1,0.5]];portConstraint=eastwest;whiteSpace=wrap;html=1;" parent="thwX0Xzvlj1knC21GbBp-173" vertex="1">
          <mxGeometry y="26" width="140" height="26" as="geometry" />
        </mxCell>
        <mxCell id="thwX0Xzvlj1knC21GbBp-175" value="- documentData" style="text;strokeColor=none;fillColor=none;align=left;verticalAlign=top;spacingLeft=4;spacingRight=4;overflow=hidden;rotatable=0;points=[[0,0.5],[1,0.5]];portConstraint=eastwest;whiteSpace=wrap;html=1;" parent="thwX0Xzvlj1knC21GbBp-173" vertex="1">
          <mxGeometry y="52" width="140" height="26" as="geometry" />
        </mxCell>
        <mxCell id="thwX0Xzvlj1knC21GbBp-176" value="&lt;div&gt;- creationTime&lt;/div&gt;" style="text;strokeColor=none;fillColor=none;align=left;verticalAlign=top;spacingLeft=4;spacingRight=4;overflow=hidden;rotatable=0;points=[[0,0.5],[1,0.5]];portConstraint=eastwest;whiteSpace=wrap;html=1;" parent="thwX0Xzvlj1knC21GbBp-173" vertex="1">
          <mxGeometry y="78" width="140" height="26" as="geometry" />
        </mxCell>
        <mxCell id="thwX0Xzvlj1knC21GbBp-177" value="&lt;div&gt;- creatorID&lt;/div&gt;" style="text;strokeColor=none;fillColor=none;align=left;verticalAlign=top;spacingLeft=4;spacingRight=4;overflow=hidden;rotatable=0;points=[[0,0.5],[1,0.5]];portConstraint=eastwest;whiteSpace=wrap;html=1;" parent="thwX0Xzvlj1knC21GbBp-173" vertex="1">
          <mxGeometry y="104" width="140" height="26" as="geometry" />
        </mxCell>
        <mxCell id="thwX0Xzvlj1knC21GbBp-178" value="- checksCount" style="text;strokeColor=none;fillColor=none;align=left;verticalAlign=top;spacingLeft=4;spacingRight=4;overflow=hidden;rotatable=0;points=[[0,0.5],[1,0.5]];portConstraint=eastwest;whiteSpace=wrap;html=1;" parent="thwX0Xzvlj1knC21GbBp-173" vertex="1">
          <mxGeometry y="130" width="140" height="26" as="geometry" />
        </mxCell>
        <mxCell id="thwX0Xzvlj1knC21GbBp-180" value="IUserService" style="swimlane;fontStyle=0;childLayout=stackLayout;horizontal=1;startSize=26;fillColor=none;horizontalStack=0;resizeParent=1;resizeParentMax=0;resizeLast=0;collapsible=1;marginBottom=0;whiteSpace=wrap;html=1;" parent="1" vertex="1">
          <mxGeometry x="-40" y="90" width="150" height="78" as="geometry" />
        </mxCell>
        <mxCell id="thwX0Xzvlj1knC21GbBp-182" value="+ChangeUserRole()" style="text;strokeColor=none;fillColor=none;align=left;verticalAlign=top;spacingLeft=4;spacingRight=4;overflow=hidden;rotatable=0;points=[[0,0.5],[1,0.5]];portConstraint=eastwest;whiteSpace=wrap;html=1;" parent="thwX0Xzvlj1knC21GbBp-180" vertex="1">
          <mxGeometry y="26" width="150" height="26" as="geometry" />
        </mxCell>
        <mxCell id="thwX0Xzvlj1knC21GbBp-183" value="&lt;div&gt;&lt;br&gt;&lt;/div&gt;" style="text;strokeColor=none;fillColor=none;align=left;verticalAlign=top;spacingLeft=4;spacingRight=4;overflow=hidden;rotatable=0;points=[[0,0.5],[1,0.5]];portConstraint=eastwest;whiteSpace=wrap;html=1;" parent="thwX0Xzvlj1knC21GbBp-180" vertex="1">
          <mxGeometry y="52" width="150" height="26" as="geometry" />
        </mxCell>
        <mxCell id="wwHzX86C8BHB5fjtuSsR-1" value="UserService" style="swimlane;fontStyle=0;childLayout=stackLayout;horizontal=1;startSize=26;fillColor=none;horizontalStack=0;resizeParent=1;resizeParentMax=0;resizeLast=0;collapsible=1;marginBottom=0;whiteSpace=wrap;html=1;" parent="1" vertex="1">
          <mxGeometry x="-45" y="260" width="160" height="52" as="geometry" />
        </mxCell>
        <mxCell id="wwHzX86C8BHB5fjtuSsR-2" value="+ChangeUserRole()" style="text;strokeColor=none;fillColor=none;align=left;verticalAlign=top;spacingLeft=4;spacingRight=4;overflow=hidden;rotatable=0;points=[[0,0.5],[1,0.5]];portConstraint=eastwest;whiteSpace=wrap;html=1;" parent="wwHzX86C8BHB5fjtuSsR-1" vertex="1">
          <mxGeometry y="26" width="160" height="26" as="geometry" />
        </mxCell>
        <mxCell id="wwHzX86C8BHB5fjtuSsR-5" value="" style="endArrow=block;html=1;rounded=0;dashed=1;endFill=0;" parent="1" source="wwHzX86C8BHB5fjtuSsR-1" target="thwX0Xzvlj1knC21GbBp-180" edge="1">
          <mxGeometry width="50" height="50" relative="1" as="geometry">
            <mxPoint x="50" y="276" as="sourcePoint" />
            <mxPoint x="50" y="210" as="targetPoint" />
          </mxGeometry>
        </mxCell>
        <mxCell id="wwHzX86C8BHB5fjtuSsR-6" value="" style="endArrow=classic;html=1;rounded=0;dashed=1;entryX=0.5;entryY=0;entryDx=0;entryDy=0;edgeStyle=orthogonalEdgeStyle;" parent="1" source="wwHzX86C8BHB5fjtuSsR-1" target="thwX0Xzvlj1knC21GbBp-27" edge="1">
          <mxGeometry width="50" height="50" relative="1" as="geometry">
            <mxPoint x="210" y="374" as="sourcePoint" />
            <mxPoint x="210" y="470" as="targetPoint" />
            <Array as="points">
              <mxPoint x="35" y="390" />
              <mxPoint x="200" y="390" />
            </Array>
          </mxGeometry>
        </mxCell>
        <mxCell id="wwHzX86C8BHB5fjtuSsR-7" value="Controller" style="swimlane;fontStyle=0;childLayout=stackLayout;horizontal=1;startSize=26;fillColor=none;horizontalStack=0;resizeParent=1;resizeParentMax=0;resizeLast=0;collapsible=1;marginBottom=0;whiteSpace=wrap;html=1;" parent="1" vertex="1">
          <mxGeometry x="-400" y="120" width="140" height="182" as="geometry" />
        </mxCell>
        <mxCell id="wwHzX86C8BHB5fjtuSsR-8" value="- login" style="text;strokeColor=none;fillColor=none;align=left;verticalAlign=top;spacingLeft=4;spacingRight=4;overflow=hidden;rotatable=0;points=[[0,0.5],[1,0.5]];portConstraint=eastwest;whiteSpace=wrap;html=1;" parent="wwHzX86C8BHB5fjtuSsR-7" vertex="1">
          <mxGeometry y="26" width="140" height="26" as="geometry" />
        </mxCell>
        <mxCell id="wwHzX86C8BHB5fjtuSsR-9" value="- password" style="text;strokeColor=none;fillColor=none;align=left;verticalAlign=top;spacingLeft=4;spacingRight=4;overflow=hidden;rotatable=0;points=[[0,0.5],[1,0.5]];portConstraint=eastwest;whiteSpace=wrap;html=1;" parent="wwHzX86C8BHB5fjtuSsR-7" vertex="1">
          <mxGeometry y="52" width="140" height="26" as="geometry" />
        </mxCell>
        <mxCell id="wwHzX86C8BHB5fjtuSsR-10" value="&lt;div&gt;- registrationDate&lt;/div&gt;" style="text;strokeColor=none;fillColor=none;align=left;verticalAlign=top;spacingLeft=4;spacingRight=4;overflow=hidden;rotatable=0;points=[[0,0.5],[1,0.5]];portConstraint=eastwest;whiteSpace=wrap;html=1;" parent="wwHzX86C8BHB5fjtuSsR-7" vertex="1">
          <mxGeometry y="78" width="140" height="26" as="geometry" />
        </mxCell>
        <mxCell id="wwHzX86C8BHB5fjtuSsR-11" value="&lt;div&gt;- name&lt;/div&gt;" style="text;strokeColor=none;fillColor=none;align=left;verticalAlign=top;spacingLeft=4;spacingRight=4;overflow=hidden;rotatable=0;points=[[0,0.5],[1,0.5]];portConstraint=eastwest;whiteSpace=wrap;html=1;" parent="wwHzX86C8BHB5fjtuSsR-7" vertex="1">
          <mxGeometry y="104" width="140" height="26" as="geometry" />
        </mxCell>
        <mxCell id="wwHzX86C8BHB5fjtuSsR-12" value="&lt;div&gt;- surname&lt;/div&gt;" style="text;strokeColor=none;fillColor=none;align=left;verticalAlign=top;spacingLeft=4;spacingRight=4;overflow=hidden;rotatable=0;points=[[0,0.5],[1,0.5]];portConstraint=eastwest;whiteSpace=wrap;html=1;" parent="wwHzX86C8BHB5fjtuSsR-7" vertex="1">
          <mxGeometry y="130" width="140" height="26" as="geometry" />
        </mxCell>
        <mxCell id="wwHzX86C8BHB5fjtuSsR-13" value="&lt;div&gt;controllerGroup&lt;/div&gt;" style="text;strokeColor=none;fillColor=none;align=left;verticalAlign=top;spacingLeft=4;spacingRight=4;overflow=hidden;rotatable=0;points=[[0,0.5],[1,0.5]];portConstraint=eastwest;whiteSpace=wrap;html=1;" parent="wwHzX86C8BHB5fjtuSsR-7" vertex="1">
          <mxGeometry y="156" width="140" height="26" as="geometry" />
        </mxCell>
        <mxCell id="wwHzX86C8BHB5fjtuSsR-14" value="" style="endArrow=classic;html=1;rounded=0;edgeStyle=elbowEdgeStyle;elbow=vertical;" parent="1" source="thwX0Xzvlj1knC21GbBp-58" target="thwX0Xzvlj1knC21GbBp-167" edge="1">
          <mxGeometry width="50" height="50" relative="1" as="geometry">
            <mxPoint y="430" as="sourcePoint" />
            <mxPoint x="50" y="380" as="targetPoint" />
            <Array as="points">
              <mxPoint x="100" y="600" />
            </Array>
          </mxGeometry>
        </mxCell>
        <mxCell id="wwHzX86C8BHB5fjtuSsR-16" value="" style="endArrow=classic;html=1;rounded=0;edgeStyle=orthogonalEdgeStyle;" parent="1" source="thwX0Xzvlj1knC21GbBp-27" target="wwHzX86C8BHB5fjtuSsR-7" edge="1">
          <mxGeometry width="50" height="50" relative="1" as="geometry">
            <mxPoint x="100" y="750" as="sourcePoint" />
            <mxPoint x="-240" y="550" as="targetPoint" />
            <Array as="points">
              <mxPoint x="200" y="590" />
              <mxPoint x="-330" y="590" />
            </Array>
          </mxGeometry>
        </mxCell>
        <mxCell id="wwHzX86C8BHB5fjtuSsR-17" value="" style="endArrow=classic;html=1;rounded=0;edgeStyle=orthogonalEdgeStyle;" parent="1" source="thwX0Xzvlj1knC21GbBp-27" target="thwX0Xzvlj1knC21GbBp-155" edge="1">
          <mxGeometry width="50" height="50" relative="1" as="geometry">
            <mxPoint x="140" y="758" as="sourcePoint" />
            <mxPoint x="-290" y="512" as="targetPoint" />
            <Array as="points">
              <mxPoint x="200" y="610" />
              <mxPoint x="-250" y="610" />
              <mxPoint x="-250" y="198" />
            </Array>
          </mxGeometry>
        </mxCell>
        <mxCell id="wwHzX86C8BHB5fjtuSsR-18" value="" style="endArrow=classic;html=1;rounded=0;edgeStyle=elbowEdgeStyle;elbow=vertical;" parent="1" source="thwX0Xzvlj1knC21GbBp-60" target="thwX0Xzvlj1knC21GbBp-161" edge="1">
          <mxGeometry width="50" height="50" relative="1" as="geometry">
            <mxPoint x="140" y="740" as="sourcePoint" />
            <mxPoint x="-190" y="208" as="targetPoint" />
            <Array as="points">
              <mxPoint x="90" y="620" />
            </Array>
          </mxGeometry>
        </mxCell>
        <mxCell id="wwHzX86C8BHB5fjtuSsR-19" value="" style="endArrow=classic;html=1;rounded=0;edgeStyle=elbowEdgeStyle;elbow=vertical;entryX=0.143;entryY=1.048;entryDx=0;entryDy=0;entryPerimeter=0;" parent="1" edge="1" source="thwX0Xzvlj1knC21GbBp-93">
          <mxGeometry width="50" height="50" relative="1" as="geometry">
            <mxPoint x="842.98" y="802.7499999999998" as="sourcePoint" />
            <mxPoint x="-490" y="275.99800000000005" as="targetPoint" />
            <Array as="points">
              <mxPoint x="150" y="640" />
            </Array>
          </mxGeometry>
        </mxCell>
        <mxCell id="4_cHp4vSSnDhNoTW_jn9-1" value="" style="endArrow=classic;html=1;rounded=0;dashed=1;edgeStyle=orthogonalEdgeStyle;" parent="1" source="thwX0Xzvlj1knC21GbBp-67" target="thwX0Xzvlj1knC21GbBp-27" edge="1">
          <mxGeometry width="50" height="50" relative="1" as="geometry">
            <mxPoint x="597" y="374" as="sourcePoint" />
            <mxPoint x="200" y="610" as="targetPoint" />
            <Array as="points">
              <mxPoint x="587" y="410" />
              <mxPoint x="230" y="410" />
            </Array>
          </mxGeometry>
        </mxCell>
        <mxCell id="P35wf1sbdZWY4PlKYVhp-1" value="" style="endArrow=classic;html=1;rounded=0;dashed=1;edgeStyle=orthogonalEdgeStyle;" parent="1" source="thwX0Xzvlj1knC21GbBp-44" target="thwX0Xzvlj1knC21GbBp-27" edge="1">
          <mxGeometry width="50" height="50" relative="1" as="geometry">
            <mxPoint x="472" y="390" as="sourcePoint" />
            <mxPoint x="115" y="486" as="targetPoint" />
            <Array as="points">
              <mxPoint x="370" y="436" />
              <mxPoint x="250" y="436" />
            </Array>
          </mxGeometry>
        </mxCell>
        <mxCell id="JhxPtG_JO7pW2S9Y1wog-1" value="" style="endArrow=none;html=1;rounded=0;dashed=1;endFill=0;startArrow=block;startFill=0;" parent="1" source="thwX0Xzvlj1knC21GbBp-82" target="thwX0Xzvlj1knC21GbBp-87" edge="1">
          <mxGeometry width="50" height="50" relative="1" as="geometry">
            <mxPoint x="1200" y="573" as="sourcePoint" />
            <mxPoint x="1200" y="650" as="targetPoint" />
          </mxGeometry>
        </mxCell>
      </root>
    </mxGraphModel>
  </diagram>
</mxfile>
